<?xml version="1.0" standalone="no"?>
<!DOCTYPE svg PUBLIC "-//W3C//DTD SVG 20010904//EN"
 "http://www.w3.org/TR/2001/REC-SVG-20010904/DTD/svg10.dtd">
<svg version="1.0" xmlns="http://www.w3.org/2000/svg"
 width="125.000000pt" height="125.000000pt" viewBox="0 0 125.000000 125.000000"
 preserveAspectRatio="xMidYMid meet">
<metadata>
Created by potrace 1.11, written by Peter Selinger 2001-2013
</metadata>
<g transform="translate(0.000000,125.000000) scale(0.100000,-0.100000)"
fill="#000000" stroke="none">
<path d="M746 1159 c-26 -4 -86 -26 -131 -48 -48 -24 -100 -42 -124 -44 -22
-1 -41 -4 -41 -6 0 -2 56 -60 124 -130 68 -69 184 -188 258 -263 73 -76 140
-138 149 -138 37 0 79 176 74 313 -4 119 -29 188 -91 249 -60 60 -128 81 -218
67z"/>
<path d="M267 1069 c-30 -23 -63 -79 -72 -125 -3 -16 -9 -70 -12 -120 -5 -78
-3 -96 13 -122 10 -17 23 -33 28 -36 6 -2 67 -27 136 -55 69 -29 134 -56 145
-61 101 -48 367 -151 395 -153 28 -2 36 3 48 25 10 22 10 32 1 50 -9 18 -458
479 -579 594 -30 29 -66 30 -103 3z"/>
<path d="M212 563 c5 -41 61 -201 115 -326 15 -35 74 -97 92 -97 21 0 43 44
53 106 17 114 63 177 103 144 17 -14 42 -94 51 -159 7 -62 32 -137 50 -151 11
-10 20 -10 43 0 32 13 118 114 148 175 33 65 20 94 -55 121 -50 18 -453 178
-487 193 -32 14 -105 41 -111 41 -4 0 -4 -21 -2 -47z"/>
</g>
</svg>
