<?xml version="1.0" encoding="utf-8"?>
<!-- Generator: Adobe Illustrator 24.3.0, SVG Export Plug-In . SVG Version: 6.00 Build 0)  -->
<svg version="1.1" id="Layer_1" xmlns="http://www.w3.org/2000/svg" xmlns:xlink="http://www.w3.org/1999/xlink" x="0px" y="0px"
	 viewBox="0 0 40 40" style="enable-background:new 0 0 40 40;" xml:space="preserve">
<style type="text/css">
	.st0{fill:#FFFFFF;}
	.st1{fill-rule:evenodd;clip-rule:evenodd;fill:#FFFFFF;}
</style>
<g>
	<g id="Group_9" transform="translate(0 0)">
		<path id="Path_1" class="st0" d="M20,38c-9.9,0-18-8.1-18-18S10.1,2,20,2s18,8.1,18,18C38,29.9,29.9,38,20,38z M20,3.9
			C11.1,3.9,3.9,11.1,3.9,20c0,8.9,7.2,16.1,16.1,16.1c8.9,0,16.1-7.2,16.1-16.1c0,0,0,0,0,0C36.1,11.1,28.9,3.9,20,3.9L20,3.9z"/>
	</g>
	<g id="Group_10" transform="translate(12.8 6.848)">
		<path id="Path_2" class="st1" d="M4.3,13.2V24c0,0.2,0.1,0.3,0.3,0.3l0,0h4c0.2,0,0.3-0.1,0.3-0.3v0v-11h2.9
			c0.1,0,0.3-0.1,0.3-0.3l0.3-3.3c0-0.2-0.1-0.3-0.3-0.3c0,0,0,0,0,0H8.8V6.9c0-0.5,0.4-1,1-1c0,0,0,0,0,0h2.2
			c0.2,0,0.3-0.1,0.3-0.3v0V2.3c0-0.2-0.1-0.3-0.3-0.3l0,0H8.3c-2.2,0-4,1.8-4,4c0,0,0,0,0,0v3.2h-2C2.1,9.2,2,9.3,2,9.5v0v3.3
			c0,0.2,0.1,0.3,0.3,0.3c0,0,0,0,0,0h2L4.3,13.2z"/>
	</g>
</g>
</svg>
