<?xml version="1.0" encoding="utf-8"?>
<!-- Generator: Adobe Illustrator 24.3.0, SVG Export Plug-In . SVG Version: 6.00 Build 0)  -->
<svg version="1.1" id="Layer_1" xmlns="http://www.w3.org/2000/svg" xmlns:xlink="http://www.w3.org/1999/xlink" x="0px" y="0px"
	 viewBox="0 0 40 40" style="enable-background:new 0 0 40 40;" xml:space="preserve">
<style type="text/css">
	.st0{fill:#FFFFFF;}
</style>
<path id="Path_3" class="st0" d="M20,38c-9.9,0-18-8.1-18-18S10.1,2,20,2s18,8.1,18,18C38,29.9,29.9,38,20,38z M20,3.7
	C11,3.7,3.7,11,3.7,20S11,36.3,20,36.3c9,0,16.3-7.3,16.3-16.3c0,0,0,0,0,0C36.3,11,29,3.7,20,3.7z M26.1,12.7
	c-0.7,0-1.3,0.6-1.3,1.3s0.6,1.3,1.3,1.3s1.3-0.6,1.3-1.3c0,0,0,0,0,0C27.4,13.3,26.8,12.7,26.1,12.7L26.1,12.7z M20.1,14.4
	c-3.1,0-5.6,2.5-5.6,5.6c0,3.1,2.5,5.6,5.6,5.6c3.1,0,5.6-2.5,5.6-5.6v0C25.7,16.9,23.2,14.4,20.1,14.4L20.1,14.4z M20.1,23.6
	c-2,0-3.6-1.6-3.6-3.6c0-2,1.6-3.6,3.6-3.6c2,0,3.6,1.6,3.6,3.6v0C23.7,22,22.1,23.6,20.1,23.6L20.1,23.6z M31.4,15.4
	c0-3.8-3.1-6.8-6.8-6.8h-9c-3.8,0-6.8,3.1-6.8,6.8v9c0,3.8,3.1,6.8,6.8,6.8h9c3.8,0,6.8-3.1,6.8-6.8L31.4,15.4z M29.3,24.4
	c0,2.6-2.1,4.7-4.7,4.7l0,0h-9c-2.6,0-4.7-2.1-4.7-4.7c0,0,0,0,0,0v-9c0-2.6,2.1-4.7,4.7-4.7l0,0h9c2.6,0,4.7,2.1,4.7,4.7v0
	L29.3,24.4z"/>
</svg>
