<?xml version="1.0" encoding="utf-8"?>
<!-- Generator: Adobe Illustrator 24.3.0, SVG Export Plug-In . SVG Version: 6.00 Build 0)  -->
<svg version="1.1" id="Layer_1" xmlns="http://www.w3.org/2000/svg" xmlns:xlink="http://www.w3.org/1999/xlink" x="0px" y="0px"
	 viewBox="0 0 160 40" style="enable-background:new 0 0 160 40;" xml:space="preserve">
<style type="text/css">
	.st0{fill:#FFFFFF;}
</style>
<g>
	<g>
		<path class="st0" d="M111.8,17c-1,1.3-2.6,2.1-4.7,2.1c-4,0-6-2.8-6-6.4s2.1-6.4,6-6.4c2.2,0,3.7,0.8,4.7,2.1l4.5-3.7
			C114.1,2.3,111,1,107,1c-7.5,0-12.3,5-12.3,11.6c0,6.7,4.8,11.6,12.3,11.6c3.9,0,7.1-1.3,9.2-3.6L111.8,17z"/>
		<path class="st0" d="M80.5,6.7h-7.2V1.5H94v5.2h-7.3v17.2h-6.2V6.7z"/>
		<path class="st0" d="M128.7,1c-7.5,0-12.3,5-12.3,11.6c0,6.7,4.8,11.6,12.3,11.6s12.3-5,12.3-11.6S136.2,1,128.7,1z M128.7,19
			c-4,0-6-2.8-6-6.4s2.1-6.4,6-6.4c4,0,6,2.8,6,6.4C134.7,16.3,132.7,19,128.7,19z"/>
		<path class="st0" d="M26.1,23.9h19v-5.5h-19C26.1,18.4,26.1,23.9,26.1,23.9z M26.4,9.9v5.5h11.9V9.9H26.4z M26.1,1.5V7h19V1.5
			H26.1z"/>
		<polygon class="st0" points="160.1,7 160.1,1.5 143.6,1.5 143.6,23.9 149.8,23.9 149.8,15.4 155.9,15.4 155.9,9.9 149.8,9.9 
			149.8,7 		"/>
		<path class="st0" d="M19.8,3.6c-2-1.4-4.5-2.1-7.7-2.1H2.3v22.8h9.8c3.2,0,5.7-0.7,7.7-2.1c2.8-2,4.4-5.2,4.4-9.3
			S22.6,5.5,19.8,3.6z M10.9,18.3H8.5V7.5h2.3c4.1,0,7,1.2,7,5.4S15,18.3,10.9,18.3z"/>
		<polygon class="st0" points="64.1,1.5 64.1,15 54.7,1.5 48.5,1.5 48.5,23.8 54.7,23.8 54.7,10.3 64.1,23.8 70.3,23.8 70.3,1.5 		
			"/>
	</g>
	<g>
		<g>
			<path class="st0" d="M46.9,34.1h0.8c0.1,1,0.7,1.6,1.9,1.6c0.9,0,1.5-0.4,1.5-1.2s-0.7-1-1.8-1.3c-1.1-0.2-2-0.6-2-1.7
				c0-1,0.8-1.6,2.1-1.6c1.5,0,2.2,0.8,2.3,1.9H51c-0.1-0.9-0.7-1.3-1.6-1.3c-0.8,0-1.4,0.4-1.4,1c0,0.7,0.7,0.9,1.6,1.1
				c1.2,0.2,2.3,0.5,2.3,1.9c0,1.2-0.9,1.8-2.3,1.8C47.8,36.3,46.9,35.3,46.9,34.1z"/>
			<path class="st0" d="M55.6,30h0.8v6.2h-0.8V30z"/>
			<path class="st0" d="M60.2,30H61l2.8,4.3c0.2,0.3,0.4,0.8,0.4,0.8l0,0V30H65v6.2h-0.8l-2.8-4.3c-0.2-0.3-0.5-0.8-0.5-0.8l0,0v5.1
				h-0.7C60.2,36.2,60.2,30,60.2,30z"/>
			<path class="st0" d="M68.8,33.1c0-1.8,1.1-3.2,2.9-3.2c1.4,0,2.3,0.8,2.5,2h-0.8c-0.1-0.8-0.8-1.3-1.7-1.3
				c-1.4,0-2.1,1.1-2.1,2.5c0,1.5,0.8,2.5,2.1,2.5c1.2,0,1.7-0.8,1.8-1.7h0.8c0,0.6-0.3,1.3-0.7,1.7c-0.4,0.4-1.1,0.6-1.8,0.6
				C69.9,36.3,68.8,35,68.8,33.1z"/>
			<path class="st0" d="M78.1,30h4.4v0.7h-3.6v2h3.3v0.7h-3.3v2.2h3.7v0.7h-4.5V30z"/>
		</g>
		<g>
			<path class="st0" d="M92.9,31.6h-1.4v-0.5c0.8,0,1.4-0.3,1.6-1.2h0.6v6.4h-0.8C92.9,36.3,92.9,31.6,92.9,31.6z"/>
			<path class="st0" d="M98,34.5h0.8c0.1,0.7,0.5,1.2,1.4,1.2c0.5,0,0.8-0.1,1.1-0.4c0.4-0.4,0.5-1.1,0.6-2.1l0,0
				c-0.4,0.5-1,0.8-1.7,0.8c-1.2,0-2.1-1-2.1-2.1c0-1.2,0.9-2.2,2.2-2.2c0.6,0,1.1,0.2,1.5,0.5c0.7,0.6,1,1.5,1,2.9
				c0,1.3-0.3,2.2-0.9,2.8c-0.4,0.3-0.9,0.5-1.5,0.5C98.9,36.3,98,35.6,98,34.5z M101.7,31.8c0-0.9-0.7-1.5-1.5-1.5
				c-0.9,0-1.5,0.6-1.5,1.5c0,0.9,0.7,1.5,1.5,1.5C101.1,33.4,101.7,32.7,101.7,31.8z"/>
			<path class="st0" d="M106,34.5h0.8c0.1,0.7,0.5,1.2,1.4,1.2c0.5,0,0.8-0.1,1.1-0.4c0.4-0.4,0.5-1.1,0.6-2.1l0,0
				c-0.4,0.5-1,0.8-1.7,0.8c-1.2,0-2.1-1-2.1-2.1c0-1.2,0.9-2.2,2.2-2.2c0.6,0,1.1,0.2,1.5,0.5c0.7,0.6,1,1.5,1,2.9
				c0,1.3-0.3,2.2-0.9,2.8c-0.4,0.3-0.9,0.5-1.5,0.5C107,36.3,106.1,35.6,106,34.5z M109.7,31.8c0-0.9-0.7-1.5-1.5-1.5
				c-0.9,0-1.5,0.6-1.5,1.5c0,0.9,0.7,1.5,1.5,1.5C109.1,33.4,109.7,32.7,109.7,31.8z"/>
			<path class="st0" d="M114.8,31.6h-1.4v-0.5c0.8,0,1.4-0.3,1.6-1.2h0.6v6.4h-0.8C114.8,36.3,114.8,31.6,114.8,31.6z"/>
		</g>
	</g>
</g>
</svg>
