<?xml version="1.0" encoding="utf-8"?>
<!-- Generator: Adobe Illustrator 24.3.0, SVG Export Plug-In . SVG Version: 6.00 Build 0)  -->
<svg version="1.1" id="Layer_1" xmlns="http://www.w3.org/2000/svg" xmlns:xlink="http://www.w3.org/1999/xlink" x="0px" y="0px"
	 viewBox="0 0 40 40" style="enable-background:new 0 0 40 40;" xml:space="preserve">
<style type="text/css">
	.st0{fill:#FFFFFF;}
</style>
<g>
	<g id="Group_13" transform="translate(0 0)">
		<path id="Path_4" class="st0" d="M20,38c-9.9,0-18-8.1-18-18S10.1,2,20,2s18,8.1,18,18C38,29.9,29.9,38,20,38z M20,3.9
			C11.1,3.9,3.9,11.1,3.9,20c0,8.9,7.2,16.1,16.1,16.1c8.9,0,16.1-7.2,16.1-16.1v0C36.1,11.1,28.9,3.9,20,3.9z"/>
	</g>
	<g id="Group_15" transform="translate(8.02 10.976)">
		<g id="Group_14">
			<path id="Path_5" class="st0" d="M22.3,6.4c0-2.4-2-4.4-4.4-4.4H6.4C4,2,2,4,2,6.4c0,0,0,0,0,0v5.4c0,2.4,2,4.4,4.4,4.4
				c0,0,0,0,0,0h11.5c2.4,0,4.4-2,4.4-4.4V6.4z M15.1,9.4l-4.6,2.5c-0.2,0.1-0.4,0-0.4-0.3V6.5c0-0.2,0.2-0.4,0.4-0.3l4.6,2.6
				c0.1,0.1,0.2,0.3,0.1,0.4C15.2,9.3,15.1,9.4,15.1,9.4L15.1,9.4z"/>
		</g>
	</g>
</g>
</svg>
